<?xml version="1.0" encoding="UTF-8"?>
<svg version="1.1" xmlns="http://www.w3.org/2000/svg" width="231" height="251">
<path d="M0 0 C76.23 0 152.46 0 231 0 C231 82.83 231 165.66 231 251 C154.77 251 78.54 251 0 251 C0 168.17 0 85.34 0 0 Z " fill="#FDFDFD" transform="translate(0,0)"/>
<path d="M0 0 C6.93 0 13.86 0 21 0 C21.06968098 16.31693674 21.12310304 32.63381135 21.15543652 48.95086098 C21.1708538 56.52849035 21.19184398 64.10602513 21.22631836 71.68359375 C21.25637922 78.29425512 21.27561227 84.90484793 21.28226548 91.51557577 C21.28614974 95.01043596 21.29516856 98.50510013 21.31719017 101.999897 C21.34167153 105.91744696 21.3419594 109.83481153 21.34057617 113.75244141 C21.351362 114.88965134 21.36214783 116.02686127 21.3732605 117.1985321 C21.29614594 137.54010922 14.08731828 155.66881403 0.0625 170.375 C-15.29368187 184.81893345 -34.52880535 191.43285429 -55.43359375 191.21484375 C-75.12553741 190.02858208 -92.39689617 181.14632262 -106 167 C-119.52657853 150.96582046 -125.67950669 132.02791261 -124.21875 111.18017578 C-122.30017399 92.0586537 -112.82249468 74.0361862 -98.125 61.6875 C-80.51768386 48.39384066 -60.43515936 43.50675365 -38.65917969 46.30029297 C-29.9997214 47.83199075 -18.39393444 50.60606556 -12 57 C-11.91232888 59.07262076 -11.89304127 61.14820294 -11.90234375 63.22265625 C-11.90717773 65.11274414 -11.90717773 65.11274414 -11.91210938 67.04101562 C-11.92046597 68.38151109 -11.92893093 69.72200588 -11.9375 71.0625 C-11.9425134 72.40689942 -11.94707658 73.7513006 -11.95117188 75.09570312 C-11.96300512 78.39717941 -11.97949029 81.69856803 -12 85 C-12.52746826 84.60312988 -13.05493652 84.20625977 -13.59838867 83.79736328 C-27.66974269 73.22410952 -39.89572956 66.81211348 -58 68 C-71.07529456 69.97047862 -82.16638925 76.17317237 -91 86 C-98.14980184 95.97740708 -101.58874941 106.07418388 -101.5 118.3125 C-101.49500488 119.22676758 -101.49000977 120.14103516 -101.48486328 121.08300781 C-101.19100519 132.55765958 -97.15217044 142.01262036 -90 151 C-89.20916016 152.01320312 -89.20916016 152.01320312 -88.40234375 153.046875 C-81.99917563 160.30848984 -70.76460499 166.86004611 -61 168 C-44.60726196 168.98420967 -30.72361916 166.72729467 -17.62890625 156.0703125 C-7.1003505 146.37622912 -1.99788828 133.95741995 -0.71319008 119.85065269 C-0.59672118 116.64173665 -0.5634507 113.44416285 -0.56762695 110.2331543 C-0.5574353 109.03156677 -0.54724365 107.82997925 -0.53674316 106.59197998 C-0.51198062 103.34278885 -0.49993508 100.09387004 -0.49388909 96.84460044 C-0.48441685 93.43196102 -0.45820747 90.01944786 -0.43388367 86.60688782 C-0.39045565 80.16518175 -0.36176404 73.7235005 -0.33856028 67.28169328 C-0.31138039 59.93925713 -0.26747762 52.59694949 -0.22227156 45.25460565 C-0.12976536 30.16980459 -0.05852321 15.08497399 0 0 Z " fill="#042A52" transform="translate(126,31)"/>
<path d="M0 0 C-0.96355353 14.78132118 -0.96355353 14.78132118 -2 21 C-10.19899873 24.53236059 -18.63602569 27.11164102 -27.1875 29.625 C-28.52812046 30.02301445 -29.86861607 30.4214497 -31.20898438 30.8203125 C-34.80374188 31.88796354 -38.40032896 32.94900494 -42 34 C-43.21469971 34.3717334 -44.42939941 34.7434668 -45.6809082 35.12646484 C-49 36 -49 36 -53 36 C-53.05947305 31.66507546 -53.04959969 27.33501303 -53 23 C-53.00773438 22.16210938 -53.01546875 21.32421875 -53.0234375 20.4609375 C-52.9375 18.375 -52.9375 18.375 -52 15 C-46.75461786 12.29500555 -41.13967165 10.72785523 -35.48828125 9.08203125 C-34.59763474 8.81992355 -33.70698822 8.55781586 -32.78935242 8.2877655 C-30.9183953 7.73856755 -29.04678514 7.19158995 -27.17456055 6.64672852 C-24.30885707 5.81143817 -21.44637034 4.96572039 -18.58398438 4.11914062 C-16.7606011 3.58530713 -14.93703939 3.05208265 -13.11328125 2.51953125 C-12.25906082 2.26645706 -11.40484039 2.01338287 -10.5247345 1.75263977 C-9.72677963 1.52207382 -8.92882477 1.29150787 -8.10668945 1.05395508 C-7.40832474 0.84982498 -6.70996002 0.64569489 -5.99043274 0.43537903 C-4 0 -4 0 0 0 Z " fill="#072C51" transform="translate(226,29)"/>
<path d="M0 0 C-0.25502046 4.34205889 -0.59657077 8.66921156 -1 13 C-1.07605469 13.91136719 -1.15210938 14.82273437 -1.23046875 15.76171875 C-1.56138927 18.11709418 -1.96192497 19.86288631 -3 22 C-5.69247816 23.19874464 -8.20096817 24.13604757 -11 25 C-11.74199646 25.23948364 -12.48399292 25.47896729 -13.24847412 25.72570801 C-15.64661236 26.48929874 -18.05186176 27.22480455 -20.4609375 27.953125 C-21.33271637 28.21760437 -22.20449524 28.48208374 -23.10269165 28.75457764 C-24.92917496 29.30728039 -26.75611693 29.85846953 -28.58349609 30.40820312 C-31.38993797 31.25450465 -34.19297334 32.11152065 -36.99609375 32.96875 C-38.77584246 33.50586884 -40.55578367 34.04235035 -42.3359375 34.578125 C-43.17546967 34.83636047 -44.01500183 35.09459595 -44.87997437 35.36065674 C-50.77142666 37.11428667 -50.77142666 37.11428667 -53 36 C-53.02719556 33.62492145 -53.04693247 31.25016036 -53.0625 28.875 C-53.07087891 28.20984375 -53.07925781 27.5446875 -53.08789062 26.859375 C-53.10782292 22.79318646 -52.78890161 18.9879908 -52 15 C-42.13884098 11.62682333 -32.23065143 8.53763713 -22.21875 5.64697266 C-19.89196262 4.96849702 -17.57065866 4.27335509 -15.25 3.57421875 C-14.47575684 3.3421875 -13.70151367 3.11015625 -12.90380859 2.87109375 C-11.41625627 2.42485993 -9.92955716 1.97576903 -8.44384766 1.5234375 C-5.52078 0.65150969 -3.06892535 0 0 0 Z " fill="#062B53" transform="translate(224,79)"/>
<path d="M0 0 C2.0078125 0.42578125 2.0078125 0.42578125 3.60839844 1.86254883 C5.74043583 5.76768849 5.43629509 9.48217906 5.40625 13.86328125 C5.40912018 14.78036865 5.41199036 15.69745605 5.41494751 16.64233398 C5.41698661 18.57894509 5.41146751 20.51557687 5.39892578 22.45214844 C5.38286993 25.41518235 5.39877967 28.37685223 5.41796875 31.33984375 C5.41598629 33.22265926 5.41214256 35.10547392 5.40625 36.98828125 C5.41535904 38.31653931 5.41535904 38.31653931 5.4246521 39.67163086 C5.38365633 43.25969932 5.34562945 45.76201829 3.70166016 48.9921875 C2.0078125 50.42578125 2.0078125 50.42578125 -1.4921875 50.80078125 C-4.9921875 50.42578125 -4.9921875 50.42578125 -7.9921875 48.42578125 C-8.37613417 45.6531587 -8.59560998 43.08254597 -8.6796875 40.30078125 C-8.71384766 39.54667969 -8.74800781 38.79257813 -8.78320312 38.015625 C-8.86573028 36.15286924 -8.93063461 34.28934799 -8.9921875 32.42578125 C-10.43851563 32.49539062 -10.43851563 32.49539062 -11.9140625 32.56640625 C-13.17734375 32.6025 -14.440625 32.63859375 -15.7421875 32.67578125 C-16.99515625 32.7221875 -18.248125 32.76859375 -19.5390625 32.81640625 C-22.9921875 32.42578125 -22.9921875 32.42578125 -25.41796875 30.6015625 C-27.53032157 27.68200786 -27.51732715 25.95171888 -26.9921875 22.42578125 C-25.44712284 20.3891051 -24.27072594 19.56505047 -21.9921875 18.42578125 C-19.7848952 18.35485283 -17.57551298 18.341631 -15.3671875 18.36328125 C-14.17867187 18.37230469 -12.99015625 18.38132813 -11.765625 18.390625 C-10.85039063 18.40222656 -9.93515625 18.41382813 -8.9921875 18.42578125 C-9.01539062 17.78511719 -9.03859375 17.14445312 -9.0625 16.484375 C-9.17645596 11.02262874 -8.85402825 6.57322334 -6.9921875 1.42578125 C-5.12296096 -0.44344529 -2.49467581 0.13347896 0 0 Z " fill="#07A6D0" transform="translate(73.9921875,123.57421875)"/>
<path d="M0 0 C-0.87803844 16.65962408 -0.87803844 16.65962408 -3 21 C-8.04275243 23.49224607 -13.30431835 25.15253257 -18.6875 26.75 C-19.43322266 26.98332031 -20.17894531 27.21664062 -20.94726562 27.45703125 C-24.92750143 28.64293558 -26.87751114 29.03062222 -31 28 C-30.67 21.4 -30.34 14.8 -30 8 C-24.75150218 5.75064379 -19.86128048 3.90829675 -14.4375 2.3125 C-13.70853516 2.08755859 -12.97957031 1.86261719 -12.22851562 1.63085938 C-8.03157536 0.38802108 -4.42650311 -0.25873715 0 0 Z " fill="#072C52" transform="translate(200,138)"/>
<path d="M0 0 C6.93 0 13.86 0 21 0 C21.04636983 16.40329979 21.08202602 32.8065724 21.10362434 49.20992184 C21.11392099 56.82690098 21.12795039 64.44383856 21.15087891 72.06079102 C21.17086226 78.70253372 21.18372814 85.34424631 21.18817699 91.98601824 C21.19077602 95.50023253 21.19685101 99.0143607 21.21146011 102.52854729 C21.22766628 106.45907029 21.22797652 110.38951031 21.22705078 114.32006836 C21.23424133 115.47525467 21.24143188 116.63044098 21.24884033 117.82063293 C21.2326125 124.20102267 20.64105011 129.82821796 19 136 C18.34 136 17.68 136 17 136 C17.14204741 134.41632253 17.28880153 132.83306682 17.4375 131.25 C17.51871094 130.36828125 17.59992188 129.4865625 17.68359375 128.578125 C18 126 18 126 18.50988674 124.15603256 C19.07047648 121.68997048 19.13985203 119.45466376 19.15821838 116.925354 C19.1680072 115.90174271 19.17779602 114.87813141 19.18788147 113.82350159 C19.19363693 112.70644333 19.1993924 111.58938507 19.20532227 110.43847656 C19.21522186 109.25771042 19.22512146 108.07694427 19.23532104 106.86039734 C19.2614831 103.62727892 19.28335577 100.3941656 19.30332303 97.16100407 C19.32521466 93.7803846 19.35258778 90.39980962 19.37937927 87.01922607 C19.42926325 80.61971836 19.47421798 74.22018589 19.51740164 67.82062984 C19.56681076 60.53406839 19.62171524 53.24755159 19.67708123 45.96103334 C19.79083532 30.97406363 19.89749371 15.98705117 20 1 C13.73 1 7.46 1 1 1 C1 39.61 1 78.22 1 118 C0.67 118 0.34 118 0 118 C0 79.06 0 40.12 0 0 Z " fill="#0F283E" transform="translate(126,31)"/>
<path d="M0 0 C2.0078125 0.42578125 2.0078125 0.42578125 3.60839844 1.86254883 C5.74043583 5.76768849 5.43629509 9.48217906 5.40625 13.86328125 C5.40912018 14.78036865 5.41199036 15.69745605 5.41494751 16.64233398 C5.41698661 18.57894509 5.41146751 20.51557687 5.39892578 22.45214844 C5.38286993 25.41518235 5.39877967 28.37685223 5.41796875 31.33984375 C5.41598629 33.22265926 5.41214256 35.10547392 5.40625 36.98828125 C5.41535904 38.31653931 5.41535904 38.31653931 5.4246521 39.67163086 C5.38365633 43.25969932 5.34562945 45.76201829 3.70166016 48.9921875 C2.0078125 50.42578125 2.0078125 50.42578125 -1.4921875 50.80078125 C-4.9921875 50.42578125 -4.9921875 50.42578125 -7.9921875 48.42578125 C-8.37613417 45.6531587 -8.59560998 43.08254597 -8.6796875 40.30078125 C-8.71384766 39.54667969 -8.74800781 38.79257813 -8.78320312 38.015625 C-8.86573028 36.15286924 -8.93063461 34.28934799 -8.9921875 32.42578125 C-10.43851563 32.49539062 -10.43851563 32.49539062 -11.9140625 32.56640625 C-13.17734375 32.6025 -14.440625 32.63859375 -15.7421875 32.67578125 C-16.99515625 32.7221875 -18.248125 32.76859375 -19.5390625 32.81640625 C-22.9921875 32.42578125 -22.9921875 32.42578125 -25.41796875 30.6015625 C-27.53032157 27.68200786 -27.51732715 25.95171888 -26.9921875 22.42578125 C-25.44712284 20.3891051 -24.27072594 19.56505047 -21.9921875 18.42578125 C-19.7848952 18.35485283 -17.57551298 18.341631 -15.3671875 18.36328125 C-14.17867187 18.37230469 -12.99015625 18.38132813 -11.765625 18.390625 C-10.85039063 18.40222656 -9.93515625 18.41382813 -8.9921875 18.42578125 C-9.01539062 17.78511719 -9.03859375 17.14445312 -9.0625 16.484375 C-9.17645596 11.02262874 -8.85402825 6.57322334 -6.9921875 1.42578125 C-5.12296096 -0.44344529 -2.49467581 0.13347896 0 0 Z M-6.9921875 3.42578125 C-7.29893982 6.32545882 -7.50392121 9.14361303 -7.6171875 12.05078125 C-7.65585938 12.85257813 -7.69453125 13.654375 -7.734375 14.48046875 C-7.82872681 16.46185681 -7.91154965 18.4437877 -7.9921875 20.42578125 C-8.71664062 20.41417969 -9.44109375 20.40257812 -10.1875 20.390625 C-15.24002073 20.34346814 -20.02597517 20.35200561 -24.9921875 21.42578125 C-25.3550678 25.46083814 -25.3550678 25.46083814 -23.9296875 29.11328125 C-20.95236962 31.13017401 -18.34393455 30.71069172 -14.8046875 30.61328125 C-11.4325 30.52046875 -11.4325 30.52046875 -7.9921875 30.42578125 C-7.3321875 35.70578125 -6.6721875 40.98578125 -5.9921875 46.42578125 C-5.3321875 46.42578125 -4.6721875 46.42578125 -3.9921875 46.42578125 C-3.9921875 47.41578125 -3.9921875 48.40578125 -3.9921875 49.42578125 C-2.0121875 49.42578125 -0.0321875 49.42578125 2.0078125 49.42578125 C3.70461649 46.03217327 3.17101029 42.17091537 3.17578125 38.4375 C3.17910965 37.54215042 3.18243805 36.64680084 3.18586731 35.72431946 C3.19093597 33.82704177 3.19327565 31.92975515 3.19311523 30.0324707 C3.19529583 27.13542874 3.21343583 24.23877113 3.23242188 21.34179688 C3.23535702 19.49869922 3.237341 17.65559975 3.23828125 15.8125 C3.24546677 14.94775558 3.25265228 14.08301117 3.26005554 13.19206238 C3.24352269 8.81778326 3.05862971 5.40701843 1.0078125 1.42578125 C-3.48523332 1.00074679 -3.48523332 1.00074679 -6.9921875 3.42578125 Z " fill="#3CA4BB" transform="translate(73.9921875,123.57421875)"/>
<path d="M0 0 C8.02638522 -0.61741425 8.02638522 -0.61741425 11.5625 1.625 C13.43910956 4.72548536 13.59452734 6.43283597 13 10 C11.5625 12.375 11.5625 12.375 9 14 C5.96953066 14.32338916 3.03471946 14.23343996 0 14 C-1.24377393 11.51245214 -1.13306235 9.77344699 -1.125 7 C-1.12757812 6.113125 -1.13015625 5.22625 -1.1328125 4.3125 C-1 2 -1 2 0 0 Z " fill="#05A6D3" transform="translate(84,142)"/>
<path d="M0 0 C0.33 0 0.66 0 1 0 C0.8858134 1.93816735 0.75826577 3.87555099 0.625 5.8125 C0.55539063 6.89144531 0.48578125 7.97039062 0.4140625 9.08203125 C0 12 0 12 -2 15 C-4.29077148 15.9831543 -4.29077148 15.9831543 -7.12109375 16.82421875 C-8.64766602 17.28344727 -8.64766602 17.28344727 -10.20507812 17.75195312 C-11.80512695 18.21504883 -11.80512695 18.21504883 -13.4375 18.6875 C-14.50033203 19.00783203 -15.56316406 19.32816406 -16.65820312 19.65820312 C-24.55240538 22 -24.55240538 22 -28 22 C-28 21.01 -28 20.02 -28 19 C-26.72125 18.7525 -25.4425 18.505 -24.125 18.25 C-18.830253 17.08835439 -13.96810741 15.13659734 -9 13 C-9 12.34 -9 11.68 -9 11 C-8.030625 10.855625 -7.06125 10.71125 -6.0625 10.5625 C-3.13513227 10.32437659 -3.13513227 10.32437659 -2 9 C-1.60851239 7.48834346 -1.26027543 5.96530368 -0.9375 4.4375 C-0.76089844 3.61121094 -0.58429688 2.78492187 -0.40234375 1.93359375 C-0.26957031 1.29550781 -0.13679688 0.65742187 0 0 Z " fill="#1B364D" transform="translate(222,87)"/>
<path d="M0 0 C0.66 0 1.32 0 2 0 C3.13076606 2.26153212 3.13773387 3.52423649 3.16113281 6.03491211 C3.17074036 6.86594955 3.1803479 7.696987 3.19024658 8.5532074 C3.1966214 9.90165489 3.1966214 9.90165489 3.203125 11.27734375 C3.20882507 12.19963272 3.21452515 13.12192169 3.22039795 14.07215881 C3.22985248 16.02490082 3.23638372 17.97765882 3.24023438 19.93041992 C3.24994964 22.92199397 3.28097255 25.91288389 3.3125 28.90429688 C3.31902899 30.79947508 3.32427987 32.6946582 3.328125 34.58984375 C3.3404718 35.48678452 3.3528186 36.38372528 3.36553955 37.30784607 C3.36253845 38.14203568 3.35953735 38.97622528 3.35644531 39.83569336 C3.36009094 40.5691246 3.36373657 41.30255585 3.36749268 42.05821228 C3 44 3 44 0 47 C0 31.49 0 15.98 0 0 Z " fill="#3497B1" transform="translate(76,126)"/>
<path d="M0 0 C8.02638522 -0.61741425 8.02638522 -0.61741425 11.5625 1.625 C13.43910956 4.72548536 13.59452734 6.43283597 13 10 C11.5625 12.375 11.5625 12.375 9 14 C5.96953066 14.32338916 3.03471946 14.23343996 0 14 C-1.24377393 11.51245214 -1.13306235 9.77344699 -1.125 7 C-1.12757812 6.113125 -1.13015625 5.22625 -1.1328125 4.3125 C-1 2 -1 2 0 0 Z M1 2 C1 5.63 1 9.26 1 13 C4.18136394 13.21691118 6.43969547 13.25066255 9.375 11.9375 C11.78794727 9.06052441 11.2734643 6.62340201 11 3 C7.7 2.67 4.4 2.34 1 2 Z " fill="#3E9EB5" transform="translate(84,142)"/>
<path d="M0 0 C2.64680904 0.11339204 5.29177518 0.24012873 7.9375 0.375 C9.06961914 0.42140625 9.06961914 0.42140625 10.22460938 0.46875 C12.15507395 0.5726315 14.07942081 0.77895614 16 1 C17.4807848 3.9615696 17.35314037 6.83506295 17.5625 10.125 C17.68818359 12.04699219 17.68818359 12.04699219 17.81640625 14.0078125 C17.87699219 14.99523437 17.93757813 15.98265625 18 17 C18.66 17 19.32 17 20 17 C20 17.99 20 18.98 20 20 C21.98 20 23.96 20 26 20 C26 20.33 26 20.66 26 21 C19.375 21.25 19.375 21.25 16 19 C15.61605333 16.22737745 15.39657752 13.65676472 15.3125 10.875 C15.26125977 9.74384766 15.26125977 9.74384766 15.20898438 8.58984375 C15.12645722 6.72708799 15.06155289 4.86356674 15 3 C10.38 3 5.76 3 1 3 C0.67 2.01 0.34 1.02 0 0 Z " fill="#309EB7" transform="translate(50,153)"/>
<path d="M0 0 C0.66 0 1.32 0 2 0 C1.99476318 0.55349121 1.98952637 1.10698242 1.98413086 1.67724609 C1.82432786 15.8704081 1.82432786 15.8704081 3 30 C1.68 29.67 0.36 29.34 -1 29 C-1.02891546 24.54168018 -1.04676981 20.08338431 -1.0625 15.625 C-1.07087891 14.35398438 -1.07925781 13.08296875 -1.08789062 11.7734375 C-1.09111328 10.56171875 -1.09433594 9.35 -1.09765625 8.1015625 C-1.10289307 6.98088379 -1.10812988 5.86020508 -1.11352539 4.70556641 C-1 2 -1 2 0 0 Z " fill="#F4F9FB" transform="translate(1,138)"/>
<path d="M0 0 C1.4540625 0.0309375 1.4540625 0.0309375 2.9375 0.0625 C2.15845672 14.84382118 2.15845672 14.84382118 -0.0625 21.0625 C-1.3825 20.7325 -2.7025 20.4025 -4.0625 20.0625 C-3.4025 19.4025 -2.7425 18.7425 -2.0625 18.0625 C-1.4464535 15.70569825 -0.91523616 13.32618079 -0.4375 10.9375 C-0.17710937 9.65617188 0.08328125 8.37484375 0.3515625 7.0546875 C0.54492188 6.06726563 0.73828125 5.07984375 0.9375 4.0625 C-0.3825 4.0625 -1.7025 4.0625 -3.0625 4.0625 C-3.3925 3.0725 -3.7225 2.0825 -4.0625 1.0625 C-3.0625 0.0625 -3.0625 0.0625 0 0 Z " fill="#112A44" transform="translate(197.0625,137.9375)"/>
<path d="M0 0 C2.64 0.66 5.28 1.32 8 2 C8 2.66 8 3.32 8 4 C15.59 4 23.18 4 31 4 C31 4.33 31 4.66 31 5 C19.19915856 7.17430065 8.53223132 5.67968861 -3 3 C-2.01 2.67 -1.02 2.34 0 2 C0 1.34 0 0.68 0 0 Z " fill="#273A4D" transform="translate(55,216)"/>
<path d="M0 0 C0.33 0 0.66 0 1 0 C1.01417969 0.93199219 1.02835938 1.86398438 1.04296875 2.82421875 C1.352066 11.08630479 2.51433116 17.59852694 5.84375 25.29296875 C6.80658931 27.54718377 7.49813857 29.61045524 8 32 C6.68 31.34 5.36 30.68 4 30 C4.33 29.01 4.66 28.02 5 27 C4.01 26.67 3.02 26.34 2 26 C2.33 25.34 2.66 24.68 3 24 C2.34 24 1.68 24 1 24 C-0.29235715 19.08497242 -0.11135517 14.22709898 -0.0625 9.1875 C-0.05798828 8.30384766 -0.05347656 7.42019531 -0.04882812 6.50976562 C-0.03709866 4.33981441 -0.01916495 2.16989828 0 0 Z " fill="#304A64" transform="translate(23,145)"/>
<path d="M0 0 C0.33 0.99 0.66 1.98 1 3 C-3.94286471 5.0328692 -8.9006362 7.02308786 -13.9375 8.8125 C-14.64777344 9.06644531 -15.35804688 9.32039063 -16.08984375 9.58203125 C-18 10 -18 10 -21 9 C-19.35 7.35 -17.7 5.7 -16 4 C-16 4.66 -16 5.32 -16 6 C-15.18015625 5.71125 -14.3603125 5.4225 -13.515625 5.125 C-12.43796875 4.75375 -11.3603125 4.3825 -10.25 4 C-9.18265625 3.62875 -8.1153125 3.2575 -7.015625 2.875 C-4 2 -4 2 0 2 C0 1.34 0 0.68 0 0 Z " fill="#193550" transform="translate(223,47)"/>
<path d="M0 0 C0.495 0.37125 0.99 0.7425 1.5 1.125 C-5.25294862 4.73704229 -9.7831484 5.3475245 -17.3125 4.1875 C-18.00537109 4.08759766 -18.69824219 3.98769531 -19.41210938 3.88476562 C-21.10917213 3.63898412 -22.80475459 3.38301848 -24.5 3.125 C-24.5 2.795 -24.5 2.465 -24.5 2.125 C-23.12328125 2.05152344 -23.12328125 2.05152344 -21.71875 1.9765625 C-13.70299893 1.55945453 -13.70299893 1.55945453 -5.875 -0.0625 C-2.5 -0.875 -2.5 -0.875 0 0 Z " fill="#1E384F" transform="translate(93.5,197.875)"/>
<path d="M0 0 C1.32 0.66 2.64 1.32 4 2 C-0.35842441 6.59687924 -4.74276241 10.45941142 -10 14 C-10.99 13.34 -11.98 12.68 -13 12 C-12.01 12 -11.02 12 -10 12 C-9.67 10.35 -9.34 8.7 -9 7 C-7.35 7.33 -5.7 7.66 -4 8 C-3.896875 7.360625 -3.79375 6.72125 -3.6875 6.0625 C-3.460625 5.381875 -3.23375 4.70125 -3 4 C-2.01 3.67 -1.02 3.34 0 3 C0 2.01 0 1.02 0 0 Z " fill="#1C3652" transform="translate(125,196)"/>
<path d="M0 0 C3.3 0.33 6.6 0.66 10 1 C10 3.31 10 5.62 10 8 C9.608125 7.34 9.21625 6.68 8.8125 6 C7.14583333 3.70833333 7.14583333 3.70833333 4.3125 3.75 C3.549375 3.8325 2.78625 3.915 2 4 C1.67 5.98 1.34 7.96 1 10 C2.65 10 4.3 10 6 10 C6 10.33 6 10.66 6 11 C4.02 11 2.04 11 0 11 C0 7.37 0 3.74 0 0 Z " fill="#11A1CA" transform="translate(85,144)"/>
<path d="M0 0 C0.33 0 0.66 0 1 0 C1.33 1.65 1.66 3.3 2 5 C2.66 4.67 3.32 4.34 4 4 C4 4.66 4 5.32 4 6 C4.99 6 5.98 6 7 6 C7.33 5.34 7.66 4.68 8 4 C7.75 6.375 7.75 6.375 7 9 C5.1875 10.375 5.1875 10.375 3 11 C1.68 10.67 0.36 10.34 -1 10 C-0.67 6.7 -0.34 3.4 0 0 Z " fill="#182F4C" transform="translate(170,156)"/>
<path d="M0 0 C0.33 0 0.66 0 1 0 C0.85923685 1.9587043 0.7122324 3.91696093 0.5625 5.875 C0.48128906 6.96554688 0.40007812 8.05609375 0.31640625 9.1796875 C0 12 0 12 -1 14 C-1.66 14 -2.32 14 -3 14 C-3 13.34 -3 12.68 -3 12 C-3.66 12 -4.32 12 -5 12 C-5 12.66 -5 13.32 -5 14 C-9.625 16.125 -9.625 16.125 -13 15 C-11.68 14.34 -10.36 13.68 -9 13 C-9 12.34 -9 11.68 -9 11 C-8.030625 10.855625 -7.06125 10.71125 -6.0625 10.5625 C-3.13513227 10.32437659 -3.13513227 10.32437659 -2 9 C-1.60851239 7.48834346 -1.26027543 5.96530368 -0.9375 4.4375 C-0.76089844 3.61121094 -0.58429688 2.78492187 -0.40234375 1.93359375 C-0.26957031 1.29550781 -0.13679687 0.65742187 0 0 Z " fill="#122F4A" transform="translate(222,87)"/>
<path d="M0 0 C1.0859375 1.765625 1.0859375 1.765625 2 4 C0.625 7.75 0.625 7.75 -1 11 C-1.99 11 -2.98 11 -4 11 C-4 11.99 -4 12.98 -4 14 C-4.99 14.33 -5.98 14.66 -7 15 C-5.45454854 9.52067211 -2.84456788 4.88570819 0 0 Z " fill="#1F3652" transform="translate(14,108)"/>
<path d="M0 0 C0.66 0 1.32 0 2 0 C2 9.24 2 18.48 2 28 C1.01 27.34 0.02 26.68 -1 26 C-0.505 24.515 -0.505 24.515 0 23 C0.08209792 21.22686149 0.10746294 19.45079225 0.09765625 17.67578125 C0.09443359 16.64775391 0.09121094 15.61972656 0.08789062 14.56054688 C0.07951172 13.48869141 0.07113281 12.41683594 0.0625 11.3125 C0.05798828 10.22904297 0.05347656 9.14558594 0.04882812 8.02929688 C0.03703743 5.35280915 0.02058063 2.67643223 0 0 Z " fill="#152B3E" transform="translate(112,88)"/>
<path d="M0 0 C0.66 0.33 1.32 0.66 2 1 C1.690625 2.0725 1.38125 3.145 1.0625 4.25 C-0.00245541 7.73443742 -0.00245541 7.73443742 -0.375 10.3125 C-1 12 -1 12 -3.0625 13.25 C-3.701875 13.4975 -4.34125 13.745 -5 14 C-6 11 -6 11 -4.78515625 8.30078125 C-4.21667969 7.31464844 -3.64820312 6.32851562 -3.0625 5.3125 C-2.49660156 4.31863281 -1.93070312 3.32476562 -1.34765625 2.30078125 C-0.90292969 1.54152344 -0.45820312 0.78226563 0 0 Z " fill="#1C354F" transform="translate(121,169)"/>
<path d="M0 0 C0.66 0 1.32 0 2 0 C0.26375242 6.4188547 -1.85180745 12.13784836 -5 18 C-5.84653438 14.9409326 -6.24513185 13.00906864 -5 10 C-4.01 9.67 -3.02 9.34 -2 9 C-1.19436362 6.89415562 -1.19436362 6.89415562 -0.8125 4.4375 C-0.65394531 3.61121094 -0.49539062 2.78492188 -0.33203125 1.93359375 C-0.22246094 1.29550781 -0.11289063 0.65742188 0 0 Z " fill="#203C55" transform="translate(143,167)"/>
<path d="M0 0 C6.27 0.33 12.54 0.66 19 1 C19 1.66 19 2.32 19 3 C12.29481414 3.19818283 6.34823202 3.30844801 0 1 C0 0.67 0 0.34 0 0 Z " fill="#0B2740" transform="translate(61,200)"/>
<path d="M0 0 C7.57142857 6.28571429 7.57142857 6.28571429 10 10 C7 10 7 10 4 8 C3.34 8.66 2.68 9.32 2 10 C1.34 6.7 0.68 3.4 0 0 Z " fill="#1D3758" transform="translate(34,181)"/>
<path d="M0 0 C0 3 0 3 -2.25 5.5 C-7.0625 9.875 -7.0625 9.875 -9 11 C-11.12109375 10.5703125 -11.12109375 10.5703125 -13 10 C-11.21024844 8.51851668 -9.41813943 7.03988094 -7.625 5.5625 C-6.62726562 4.73878906 -5.62953125 3.91507812 -4.6015625 3.06640625 C-2 1 -2 1 0 0 Z " fill="#243D58" transform="translate(35,88)"/>
<path d="M0 0 C0.66 0.33 1.32 0.66 2 1 C2.4140625 3.28515625 2.4140625 3.28515625 2.625 6.0625 C2.69976562 6.98160156 2.77453125 7.90070313 2.8515625 8.84765625 C2.92503906 9.91306641 2.92503906 9.91306641 3 11 C1.68 10.67 0.36 10.34 -1 10 C-1.02689216 8.52093108 -1.04634621 7.04172517 -1.0625 5.5625 C-1.07410156 4.73878906 -1.08570312 3.91507813 -1.09765625 3.06640625 C-1 1 -1 1 0 0 Z " fill="#EEF3F6" transform="translate(1,157)"/>
<path d="M0 0 C0.99 0.99 1.98 1.98 3 3 C-3.625 6 -3.625 6 -7 6 C-5.9024777 3.00675737 -5.32317108 2.15389099 -2.375 0.75 C-1.59125 0.5025 -0.8075 0.255 0 0 Z " fill="#15324F" transform="translate(103,212)"/>
<path d="M0 0 C1.32 0 2.64 0 4 0 C4.33 1.32 4.66 2.64 5 4 C4.38125 4.268125 3.7625 4.53625 3.125 4.8125 C0.7004767 5.95556848 0.7004767 5.95556848 -1 9 C-1.09765625 2.84765625 -1.09765625 2.84765625 -1 1 C-0.67 0.67 -0.34 0.34 0 0 Z " fill="#244159" transform="translate(171,145)"/>
<path d="M0 0 C0.33 0 0.66 0 1 0 C1.2358396 5.77807024 0.86783046 10.51324804 -1 16 C-1.66 16 -2.32 16 -3 16 C-2.01 10.72 -1.02 5.44 0 0 Z " fill="#243B4D" transform="translate(126,149)"/>
<path d="M0 0 C0.66 0.99 1.32 1.98 2 3 C-1.83325617 5.70582788 -4.32538149 6.32613618 -9 6 C-6.11964908 3.75972706 -3.15133488 1.83827868 0 0 Z " fill="#1F384D" transform="translate(103,191)"/>
<path d="M0 0 C0.33 0 0.66 0 1 0 C1.02696365 1.79158489 1.04637917 3.58328473 1.0625 5.375 C1.07410156 6.37273437 1.08570313 7.37046875 1.09765625 8.3984375 C1 11 1 11 0 13 C-0.66 13 -1.32 13 -2 13 C-1.85851011 11.3954444 -1.71164314 9.79136233 -1.5625 8.1875 C-1.48128906 7.29417969 -1.40007812 6.40085938 -1.31640625 5.48046875 C-1 3 -1 3 0 0 Z " fill="#19334C" transform="translate(5,127)"/>
<path d="M0 0 C2.64 0.66 5.28 1.32 8 2 C8 2.99 8 3.98 8 5 C4.37 4.34 0.74 3.68 -3 3 C-2.01 2.67 -1.02 2.34 0 2 C0 1.34 0 0.68 0 0 Z " fill="#233E56" transform="translate(55,216)"/>
<path d="M0 0 C0 1.32 0 2.64 0 4 C-2.64 4.66 -5.28 5.32 -8 6 C-6.65038535 0.6015414 -5.51062674 0 0 0 Z " fill="#163451" transform="translate(193,106)"/>
<path d="M0 0 C0.66 0.33 1.32 0.66 2 1 C-0.97 4.3 -3.94 7.6 -7 11 C-7.66 10.67 -8.32 10.34 -9 10 C-6.03 6.7 -3.06 3.4 0 0 Z " fill="#D9E5EC" transform="translate(41,110)"/>
<path d="M0 0 C0 1.98 0 3.96 0 6 C-0.66 5.67 -1.32 5.34 -2 5 C-2 4.01 -2 3.02 -2 2 C-2.66 2 -3.32 2 -4 2 C-4 2.66 -4 3.32 -4 4 C-6.97 3.505 -6.97 3.505 -10 3 C-6.59538535 1.23899242 -3.90650339 0 0 0 Z " fill="#273E55" transform="translate(224,79)"/>
<path d="M0 0 C0 0.66 0 1.32 0 2 C-5.445 3.485 -5.445 3.485 -11 5 C-11 4.01 -11 3.02 -11 2 C-3.375 0 -3.375 0 0 0 Z " fill="#20394F" transform="translate(183,111)"/>
<path d="M0 0 C2.97 0 5.94 0 9 0 C6.6870518 2.3129482 5.52095125 2.49580975 2.375 3.125 C1.55773437 3.29257812 0.74046875 3.46015625 -0.1015625 3.6328125 C-1.04128906 3.81457031 -1.04128906 3.81457031 -2 4 C-2 3.34 -2 2.68 -2 2 C-1.34 2 -0.68 2 0 2 C0 1.34 0 0.68 0 0 Z " fill="#203553" transform="translate(191,57)"/>
<path d="M0 0 C0 0.66 0 1.32 0 2 C-0.66 2 -1.32 2 -2 2 C-2.33 2.99 -2.66 3.98 -3 5 C-3.99 5.33 -4.98 5.66 -6 6 C-5.67 4.35 -5.34 2.7 -5 1 C-2 0 -2 0 0 0 Z " fill="#253954" transform="translate(180,42)"/>
<path d="M0 0 C1.65 0 3.3 0 5 0 C5 1.98 5 3.96 5 6 C3.31237149 4.3545622 1.6459651 2.68711423 0 1 C0 0.67 0 0.34 0 0 Z " fill="#283F56" transform="translate(17,193)"/>
<path d="M0 0 C0.33 0 0.66 0 1 0 C2.125 6.625 2.125 6.625 1 10 C0.34 10 -0.32 10 -1 10 C-0.67 6.7 -0.34 3.4 0 0 Z " fill="#0E2C49" transform="translate(144,157)"/>
<path d="M0 0 C-4.75 4 -4.75 4 -7 4 C-6.625 2.0625 -6.625 2.0625 -6 0 C-3.50907189 -1.24546405 -2.58919267 -0.7767578 0 0 Z " fill="#253F56" transform="translate(48,106)"/>
<path d="M0 0 C-0.33 1.65 -0.66 3.3 -1 5 C-1.99 5.33 -2.98 5.66 -4 6 C-4 4.35 -4 2.7 -4 1 C-2 0 -2 0 0 0 Z " fill="#1C3650" transform="translate(176,93)"/>
<path d="M0 0 C5.75 1.75 5.75 1.75 8 4 C6.68 4.33 5.36 4.66 4 5 C2.68 3.35 1.36 1.7 0 0 Z " fill="#21374C" transform="translate(101,82)"/>
<path d="M0 0 C3.96 0 7.92 0 12 0 C12 0.99 12 1.98 12 3 C6.06 2.01 6.06 2.01 0 1 C0 0.67 0 0.34 0 0 Z " fill="#E0FBFD" transform="translate(84,141)"/>
</svg>
